# xmcd
#
# Track frame offsets:
#	150
#	12131
#	26328
#	38990
#	51536
#	63355
#	76024
#	87808
#	100109
#	113200
#	124884
#	137058
#	149955
#	162491
#	175674
#	190794
#	204704
#	216483
#	232353
#	245305
#	259383
#	272412
#	284894
#	297266
#	310135
#
# Disc length: 4302 seconds
# Revision: 0
# Processed by: cddbd v1.5.2PL0 Copyright (c) Steve Scherf et al.
# Submitted via: dBpowerAMP V12.0
#
DISCID=8310cc19
DTITLE=Various Artist - Sonny Terry And Brownie McGhee Story
DYEAR=2015
DGENRE=Blues
TTITLE0=Sonny Terry - Pistol Slapper Blues
TTITLE1=Sonny Terry - Mountain Blues
TTITLE2=Sonny Terry - Train Whistle Blues
TTITLE3=Sonny Terry - I Want Some Of You Pie
TTITLE4=Sonny Terry - Harmonica And Washboard Breakdown
TTITLE5=Sonny Terry - Harmonica Stomp
TTITLE6=Brownie McGhee - Poison Woman Blues
TTITLE7=Brownie McGhee - Back Door Stranger
TTITLE8=Brownie McGhee - Born For Band Luck
TTITLE9=Brownie McGhee - Million Lonesome Women
TTITLE10=Brownie McGhee - Death Of Blind Boy Fuller
TTITLE11=Brownie McGhee - Black Womans Man
TTITLE12=Sonny Terry - Working Mans Blues
TTITLE13=Sonny Terry - Back Home Blues
TTITLE14=Sonny Terry - The Red Cross
TTITLE15=Sonny Terry - Sweet Woman
TTITLE16=Sonny Terry - Glory
TTITLE17=Sonny Terry - Lonesome Train
TTITLE18=Sonny Terry - That's The Stuff (Watch Out)
TTITLE19=Sonny Terry - Knockabout Blues (Carolina Blues)
TTITLE20=Sonny Terry - Easy Ridin' Buggy
TTITLE21=Sonny Terry - Woman Lover Blues
TTITLE22=Sonny Terry - Run Away Woman (Hootin' The Blues)
TTITLE23=Sonny Terry - Shake Down Blues
TTITLE24=Sonny Terry - Goin' Down Slow
EXTD=
EXTT0=
EXTT1=
EXTT2=
EXTT3=
EXTT4=
EXTT5=
EXTT6=
EXTT7=
EXTT8=
EXTT9=
EXTT10=
EXTT11=
EXTT12=
EXTT13=
EXTT14=
EXTT15=
EXTT16=
EXTT17=
EXTT18=
EXTT19=
EXTT20=
EXTT21=
EXTT22=
EXTT23=
EXTT24=
PLAYORDER=
